<?xml version="1.0" encoding="UTF-8"?>
<svg width="128px" height="190px" viewBox="0 0 128 190" version="1.1" xmlns="http://www.w3.org/2000/svg" xmlns:xlink="http://www.w3.org/1999/xlink">
    <!-- Generator: Sketch 49.3 (51167) - http://www.bohemiancoding.com/sketch -->
    <title>Artboard</title>
    <desc>Created with Sketch.</desc>
    <defs>
        <path d="M0,0 L128,0 L128,190 L0,190 L0,0 Z M15.512,51.164 L26.96,51.164 C31.244,51.164 34.304,48.356 34.304,44.396 C34.304,41.696 32.576,39.356 29.804,38.096 C31.964,37.016 33.332,35.216 33.332,32.588 C33.332,28.988 30.524,26.432 26.528,26.432 L15.512,26.432 L15.512,51.164 Z M17.816,37.16 L17.816,28.556 L26.024,28.556 C28.94,28.556 30.992,30.356 30.992,32.84 C30.992,35.36 29.012,37.16 26.168,37.16 L17.816,37.16 Z M17.816,49.04 L17.816,39.284 L26.456,39.284 C29.696,39.284 31.964,41.3 31.964,44.144 C31.964,46.988 29.696,49.04 26.456,49.04 L17.816,49.04 Z M47.732,51.596 C52.952,51.596 57.344,47.132 57.344,41.84 C57.344,36.548 52.952,32.12 47.732,32.12 C42.512,32.12 38.084,36.548 38.084,41.84 C38.084,47.132 42.512,51.596 47.732,51.596 Z M47.732,49.544 C43.736,49.544 40.424,46.052 40.424,41.84 C40.424,37.664 43.736,34.172 47.732,34.172 C51.692,34.172 55.004,37.664 55.004,41.84 C55.004,46.052 51.692,49.544 47.732,49.544 Z M70.448,51.596 C75.668,51.596 80.06,47.132 80.06,41.84 C80.06,36.548 75.668,32.12 70.448,32.12 C65.228,32.12 60.8,36.548 60.8,41.84 C60.8,47.132 65.228,51.596 70.448,51.596 Z M70.448,49.544 C66.452,49.544 63.14,46.052 63.14,41.84 C63.14,37.664 66.452,34.172 70.448,34.172 C74.408,34.172 77.72,37.664 77.72,41.84 C77.72,46.052 74.408,49.544 70.448,49.544 Z M100.328,32.552 L97.412,32.552 L86.72,43.388 L86.72,26 L84.488,26 L84.488,51.164 L86.72,51.164 L86.72,46.268 L90.356,42.596 L97.052,51.164 L99.86,51.164 L91.94,41.084 L100.328,32.552 Z M26.672,94.596 C30.092,94.596 33.26,93.12 35.564,90.816 L33.98,89.196 C32.108,91.176 29.48,92.436 26.672,92.436 C21.056,92.436 16.34,87.576 16.34,81.78 C16.34,76.02 21.056,71.16 26.672,71.16 C29.48,71.16 32.108,72.42 33.98,74.364 L35.564,72.78 C33.26,70.44 30.092,69 26.672,69 C19.832,69 14,74.832 14,81.78 C14,88.728 19.832,94.596 26.672,94.596 Z M47.984,94.596 C53.204,94.596 57.596,90.132 57.596,84.84 C57.596,79.548 53.204,75.12 47.984,75.12 C42.764,75.12 38.336,79.548 38.336,84.84 C38.336,90.132 42.764,94.596 47.984,94.596 Z M47.984,92.544 C43.988,92.544 40.676,89.052 40.676,84.84 C40.676,80.664 43.988,77.172 47.984,77.172 C51.944,77.172 55.256,80.664 55.256,84.84 C55.256,89.052 51.944,92.544 47.984,92.544 Z M68.432,94.164 L70.412,94.164 L78.476,75.552 L75.992,75.552 L69.404,91.32 L62.78,75.552 L60.296,75.552 L68.432,94.164 Z M90.5,92.544 C86.684,92.544 83.84,89.592 83.444,85.74 L99.176,85.74 C99.176,79.332 95.864,75.12 90.356,75.12 C85.316,75.12 81.176,79.296 81.176,84.804 C81.176,90.384 85.532,94.596 90.5,94.596 C93.236,94.596 96.512,93.444 98.096,91.716 L96.692,90.204 C95.396,91.608 92.84,92.544 90.5,92.544 Z M90.428,77.172 C94.352,77.172 96.656,79.944 96.944,83.688 L83.48,83.688 C83.948,79.836 86.792,77.172 90.428,77.172 Z M106.088,79.368 L106.088,75.552 L103.856,75.552 L103.856,94.164 L106.088,94.164 L106.088,83.76 C106.088,79.908 109.076,77.172 113.288,77.172 L113.288,75.12 C109.868,75.12 107.132,76.848 106.088,79.368 Z" id="path-1"></path>
    </defs>
    <g id="Page-1" stroke="none" stroke-width="1" fill="none" fill-rule="evenodd">
        <g id="Artboard">
            <g id="Combined-Shape">
                <use fill="#D8D8D8" fill-rule="evenodd" xlink:href="#path-1"></use>
                <path stroke="#979797" stroke-width="1" d="M0.5,0.5 L0.5,189.5 L127.5,189.5 L127.5,0.5 L0.5,0.5 Z M30.8538834,38.0727662 C33.3240323,39.4921814 34.804,41.8005659 34.804,44.396 C34.804,48.6375919 31.51591,51.664 26.96,51.664 L15.012,51.664 L15.012,25.932 L26.528,25.932 C30.7837499,25.932 33.832,28.6948334 33.832,32.588 C33.832,34.9702013 32.7771007,36.8282414 30.8538834,38.0727662 Z M18.316,36.66 L26.168,36.66 C28.7363858,36.66 30.492,35.0808762 30.492,32.84 C30.492,30.6385081 28.6660291,29.056 26.024,29.056 L18.316,29.056 L18.316,36.66 Z M18.316,48.54 L26.456,48.54 C29.4173485,48.54 31.464,46.711279 31.464,44.144 C31.464,41.5855212 29.4266776,39.784 26.456,39.784 L18.316,39.784 L18.316,48.54 Z M47.732,52.096 C42.2301095,52.096 37.584,47.40236 37.584,41.84 C37.584,36.2837519 42.2240178,31.62 47.732,31.62 C53.2338282,31.62 57.844,36.2775771 57.844,41.84 C57.844,47.4085723 53.2277738,52.096 47.732,52.096 Z M47.732,49.044 C51.4148179,49.044 54.504,45.7761917 54.504,41.84 C54.504,37.9345132 51.4098746,34.672 47.732,34.672 C44.0233571,34.672 40.924,37.9289516 40.924,41.84 C40.924,45.7817739 44.0183945,49.044 47.732,49.044 Z M70.448,52.096 C64.9461095,52.096 60.3,47.40236 60.3,41.84 C60.3,36.2837519 64.9400178,31.62 70.448,31.62 C75.9498282,31.62 80.56,36.2775771 80.56,41.84 C80.56,47.4085723 75.9437738,52.096 70.448,52.096 Z M70.448,49.044 C74.1308179,49.044 77.22,45.7761917 77.22,41.84 C77.22,37.9345132 74.1258746,34.672 70.448,34.672 C66.7393571,34.672 63.64,37.9289516 63.64,41.84 C63.64,45.7817739 66.7343945,49.044 70.448,49.044 Z M92.6048766,41.1209114 L100.888732,51.664 L96.8081773,51.664 L90.3117224,43.3513319 L87.22,46.4736654 L87.22,51.664 L83.988,51.664 L83.988,25.5 L87.22,25.5 L87.22,42.1693816 L97.2029314,32.052 L101.520726,32.052 L92.6048766,41.1209114 Z M26.672,95.096 C19.5445024,95.096 13.5,88.9926989 13.5,81.78 C13.5,74.5735264 19.5382835,68.5 26.672,68.5 C30.1487094,68.5 33.4647576,69.9353044 35.9202834,72.4291979 L36.2683767,72.7827301 L33.9732663,75.0778405 L33.6198399,74.7108208 C31.7723985,72.792324 29.2520645,71.66 26.672,71.66 C21.3395451,71.66 16.84,76.2887186 16.84,81.78 C16.84,87.3018915 21.3343326,91.936 26.672,91.936 C29.2619944,91.936 31.7792298,90.7959477 33.6166767,88.8524943 L33.9739422,88.4746173 L36.2671566,90.8199502 L35.9175534,91.1695534 C33.4375285,93.6495783 30.1186841,95.096 26.672,95.096 Z M47.984,95.096 C42.4821095,95.096 37.836,90.40236 37.836,84.84 C37.836,79.2837519 42.4760178,74.62 47.984,74.62 C53.4858282,74.62 58.096,79.2775771 58.096,84.84 C58.096,90.4085723 53.4797738,95.096 47.984,95.096 Z M47.984,92.044 C51.6668179,92.044 54.756,88.7761917 54.756,84.84 C54.756,80.9345132 51.6618746,77.672 47.984,77.672 C44.2753571,77.672 41.176,80.9289516 41.176,84.84 C41.176,88.7817739 44.2703945,92.044 47.984,92.044 Z M69.4027434,90.0260334 L75.6590177,75.052 L79.2375477,75.052 L70.7402788,94.664 L68.1048835,94.664 L59.5317462,75.052 L63.1122819,75.052 L69.4027434,90.0260334 Z M84.0164793,86.24 C84.5959803,89.640497 87.201615,92.044 90.5,92.044 C92.7371934,92.044 95.1456306,91.142075 96.3245983,89.8648599 L96.6909113,89.4680209 L98.7762893,91.7138126 L98.4645771,92.0538623 C96.8214321,93.8463841 93.4519321,95.096 90.5,95.096 C85.1324793,95.096 80.676,90.5339726 80.676,84.804 C80.676,79.0901244 84.9719637,74.62 90.356,74.62 C96.0981773,74.62 99.676,78.9940741 99.676,85.74 L99.676,86.24 L84.0164793,86.24 Z M84.0636867,83.188 L96.3888807,83.188 C95.9358012,79.8126599 93.7388089,77.672 90.428,77.672 C87.227875,77.672 84.6942062,79.8892323 84.0636867,83.188 Z M106.588,77.5570594 C108.05672,75.729715 110.493335,74.62 113.288,74.62 L113.788,74.62 L113.788,77.672 L113.288,77.672 C109.343502,77.672 106.588,80.1938196 106.588,83.76 L106.588,94.664 L103.356,94.664 L103.356,75.052 L106.588,75.052 L106.588,77.5570594 Z"></path>
            </g>
        </g>
    </g>
</svg>